<svg width="17" height="23" viewBox="0 0 17 23" fill="none" xmlns="http://www.w3.org/2000/svg">
<path d="M7.62 0C7.92 0.1 8.23 0.1 8.54 0.17C9.81 0.48 10.94 1.07 11.85 2.01C12.78 2.98 13.46 4.11 13.76 5.45C14.13 7.16 13.93 8.8 13.11 10.35C12 12.4 10.29 13.63 8 13.97C5.44 14.35 3.3 13.49 1.61 11.54C0.77 10.56 0.28 9.39 0.0900002 8.1C-0.21 6.06 0.29 4.23 1.56 2.61C2.68 1.19 4.14 0.36 5.92 0.08C6.02 0.06 6.13 0.08 6.22 0C6.69 0 7.15 0 7.62 0ZM6.97 13.12C10.4 13.1 12.95 10.34 12.98 7.05C13.01 3.77 10.27 0.93 6.96 0.93C3.62 0.93 0.89 3.8 0.94 7.07C0.99 10.44 3.62 13.12 6.97 13.12Z" fill="#009E3F"/>
<path d="M9.29 19.9999C11.17 17.9799 13.19 16.0999 15.07 14.0999C15.02 14.0299 14.95 14.0699 14.9 14.0699C14.12 14.0699 13.33 14.0699 12.55 14.0699C12.29 14.0699 12.13 13.9299 12.07 13.6899C12.03 13.4999 12.13 13.2999 12.31 13.1999C12.42 13.1399 12.53 13.1399 12.65 13.1399C13.81 13.1399 14.97 13.1399 16.13 13.1399C16.54 13.1399 16.71 13.3199 16.71 13.7199C16.71 14.9199 16.71 16.1299 16.71 17.3299C16.71 17.5899 16.57 17.7699 16.36 17.8099C16.13 17.8599 15.91 17.7599 15.82 17.5499C15.77 17.4399 15.77 17.3099 15.77 17.1899C15.77 16.4799 15.77 15.7699 15.77 15.0599C15.77 14.9899 15.79 14.9199 15.71 14.7899C15.66 14.8599 15.63 14.9299 15.58 14.9799C14.35 16.2099 13.11 17.4299 11.9 18.6799C11.19 19.4199 10.46 20.1399 9.74 20.8799C9.4 21.2299 9.18 21.2299 8.84 20.8799C8.23 20.2699 7.6 19.6699 7.02 19.0399C6.6 18.5799 6.14 18.1599 5.72 17.6999C5.6 17.5699 5.54 17.5899 5.44 17.7099C5.09 18.0799 4.71 18.4199 4.37 18.7899C3.26 19.9899 2.06 21.1099 0.920001 22.2799C0.850001 22.3499 0.780001 22.4099 0.700001 22.4599C0.530001 22.5599 0.310001 22.5299 0.160001 22.3899C0.0100008 22.2399 -0.0299992 22.0099 0.0800008 21.8299C0.130001 21.7399 0.200001 21.6699 0.270001 21.5999C1.1 20.7599 1.96 19.9399 2.77 19.0899C3.54 18.2699 4.35 17.4999 5.13 16.6999C5.47 16.3499 5.69 16.3599 6.03 16.6899C6.72 17.3799 7.43 18.0599 8.1 18.7699C8.48 19.1699 8.89 19.5699 9.29 19.9999Z" fill="#009E3F"/>
<path d="M7.51 5.1701C7.24 5.1701 6.97 5.1601 6.71 5.1701C6.3 5.1901 6.02 5.4801 6.05 5.8801C6.07 6.2601 6.33 6.5901 6.75 6.5801C7.16 6.5701 7.57 6.5801 7.95 6.7801C8.57 7.1001 8.87 7.7401 8.82 8.3101C8.75 9.0601 8.29 9.6101 7.6 9.7801C7.47 9.8101 7.43 9.8601 7.43 9.9901C7.44 10.1501 7.44 10.3101 7.4 10.4601C7.34 10.6701 7.18 10.8101 6.96 10.8101C6.74 10.8101 6.58 10.6701 6.52 10.4701C6.48 10.3101 6.48 10.1401 6.49 9.9701C6.49 9.8601 6.46 9.8301 6.36 9.8401C6.11 9.8501 5.85 9.8501 5.6 9.8401C5.32 9.8401 5.12 9.6501 5.1 9.3901C5.09 9.1601 5.27 8.9301 5.54 8.9201C6.06 8.9001 6.58 8.9001 7.1 8.9001C7.33 8.9001 7.55 8.8601 7.71 8.6701C7.89 8.4501 7.94 8.2001 7.82 7.9401C7.71 7.6801 7.5 7.5401 7.21 7.5301C6.91 7.5201 6.61 7.5501 6.33 7.4701C5.53 7.2401 5.11 6.6301 5.1 5.8301C5.1 5.0901 5.62 4.4601 6.35 4.2801C6.46 4.2501 6.49 4.2101 6.49 4.1101C6.49 3.9501 6.47 3.7901 6.52 3.6401C6.59 3.4201 6.76 3.2901 6.97 3.3001C7.18 3.3001 7.34 3.4301 7.4 3.6301C7.45 3.7801 7.44 3.9301 7.43 4.0801C7.43 4.1901 7.45 4.2301 7.57 4.2301C7.82 4.2201 8.06 4.2201 8.31 4.2301C8.6 4.2301 8.81 4.4201 8.82 4.6801C8.83 4.9101 8.64 5.1101 8.37 5.1501C8.34 5.1501 8.31 5.1601 8.28 5.1601C8.03 5.1601 7.77 5.1601 7.51 5.1701C7.51 5.1601 7.51 5.1601 7.51 5.1701Z" fill="#009E3F"/>
</svg>
