<svg width="22" height="22" viewBox="0 0 22 22" fill="none" xmlns="http://www.w3.org/2000/svg">
<rect width="22" height="22" rx="5" fill="#FFA55C"/>
<path d="M16 8.67574C15.9413 8.85379 15.8246 8.97892 15.7071 9.10602C14.2603 10.6718 12.8146 12.2392 11.3688 13.8063C11.138 14.0563 10.8726 14.0661 10.6501 13.8251C9.16121 12.2126 7.67326 10.5987 6.18433 8.98592C6.03311 8.82215 5.96191 8.63319 6.02039 8.39551C6.1097 8.03326 6.49337 7.88293 6.75739 8.10717C6.79385 8.13824 6.82737 8.17408 6.8604 8.20963C8.21206 9.67431 9.56396 11.1384 10.9132 12.6062C10.9834 12.6823 11.0181 12.6823 11.0881 12.6062C12.4417 11.1334 13.7983 9.66395 15.1548 8.19451C15.3555 7.97727 15.5808 7.942 15.7827 8.08869C15.895 8.17044 15.9508 8.29669 16 8.42995C16 8.51169 16 8.59372 16 8.67574Z" fill="white"/>
</svg>
