<svg width="12" height="13" viewBox="0 0 12 13" fill="none" xmlns="http://www.w3.org/2000/svg">
<g clip-path="url(#clip0_295_1208)">
<path d="M10.9305 -3.12151e-05C11.0033 0.0223673 11.0761 0.0391662 11.1489 0.0615647C11.7088 0.246352 12.0504 0.783917 12 1.39428C11.9552 1.92064 11.5016 2.39661 10.9585 2.4806C10.7065 2.5198 10.4545 2.4918 10.2193 2.37421C10.1577 2.34061 10.1185 2.35181 10.0681 2.39101C9.65936 2.70459 9.25058 3.01257 8.84181 3.32055C8.77461 3.37094 8.76342 3.41574 8.78581 3.49414C8.9818 4.17729 8.56743 4.88844 7.88987 5.05083C7.19552 5.21882 6.50677 4.78205 6.36118 4.0821C6.31638 3.86931 6.32758 3.65093 6.40597 3.44374C6.42837 3.38774 6.41717 3.35974 6.37237 3.32055C5.9692 3.00137 5.57723 2.67659 5.18525 2.35181C5.13486 2.31261 5.10686 2.31821 5.05646 2.34621C4.64769 2.5758 4.23892 2.587 3.82454 2.37421C3.77415 2.34621 3.74615 2.35181 3.71255 2.39101C3.22538 2.90058 2.73822 3.41574 2.25105 3.91971C2.19505 3.9757 2.22305 4.0093 2.25665 4.0541C2.77741 4.79325 2.41344 5.77318 1.5343 6.00277C0.755949 6.20436 -0.0112002 5.594 -9.27881e-07 4.77645C0.0055987 4.0149 0.671954 3.44934 1.4279 3.55573C1.5119 3.56693 1.57349 3.55013 1.63509 3.48854C2.15026 2.93417 2.67102 2.39101 3.19179 1.84225C3.24218 1.79185 3.26458 1.74705 3.23658 1.67426C3.0014 0.985503 3.39337 0.257552 4.10453 0.0615647C4.79328 -0.123223 5.51563 0.330347 5.64442 1.0415C5.68362 1.23749 5.67242 1.43907 5.61083 1.62946C5.58843 1.69106 5.59963 1.72465 5.65002 1.76385C6.0476 2.08303 6.43957 2.40781 6.83154 2.73259C6.87634 2.77178 6.90994 2.77738 6.97153 2.74379C7.38591 2.5198 7.80028 2.5198 8.20905 2.75499C8.26505 2.78858 8.29865 2.77738 8.34904 2.73819C8.74662 2.43581 9.13859 2.13903 9.53616 1.83665C9.58656 1.80305 9.61456 1.77505 9.58656 1.69666C9.31778 0.951905 9.70415 0.223954 10.4713 0.0167677C10.4881 0.011168 10.5161 0.0167677 10.5217 -0.0112305C10.6617 -3.12151e-05 10.7961 -3.12151e-05 10.9305 -3.12151e-05ZM10.7457 1.74145C11.0201 1.74705 11.2496 1.52867 11.2496 1.25429C11.2552 0.985503 11.0313 0.755918 10.7625 0.744719C10.4937 0.73912 10.2641 0.963105 10.2585 1.23749C10.2529 1.51187 10.4769 1.74145 10.7457 1.74145ZM7.09473 3.83011C7.09473 4.1101 7.30751 4.32848 7.58189 4.32848C7.85628 4.32848 8.08026 4.11569 8.08586 3.84131C8.09146 3.57253 7.86748 3.34295 7.59309 3.33735C7.31871 3.33175 7.09473 3.55573 7.09473 3.83011ZM4.91087 1.27668C4.91087 1.0023 4.69249 0.778317 4.4181 0.778317C4.14932 0.772717 3.91974 1.0023 3.91974 1.27108C3.91974 1.54547 4.14372 1.76385 4.4181 1.76385C4.69249 1.76945 4.91087 1.55107 4.91087 1.27668ZM1.24312 5.28042C1.5175 5.28042 1.74148 5.06203 1.74708 4.79325C1.74708 4.51887 1.5287 4.30048 1.25432 4.29488C0.979934 4.29488 0.755949 4.51327 0.755949 4.78205C0.750349 5.06203 0.968735 5.28042 1.24312 5.28042Z" fill="#3E3C3D"/>
<path d="M11.9552 9.29536C11.9552 10.4041 11.9552 11.5128 11.9552 12.6159C11.9552 12.7223 11.9328 12.7447 11.8264 12.7447C11.0929 12.7391 10.3593 12.7391 9.62577 12.7447C9.53618 12.7447 9.50818 12.7279 9.50818 12.6327C9.51378 10.4377 9.50818 8.24263 9.51378 6.05318C9.51378 5.39243 9.99535 4.87726 10.6561 4.82686C11.2777 4.77647 11.8376 5.22444 11.944 5.85159C11.9608 5.94679 11.9552 6.04198 11.9552 6.13718C11.9552 7.1899 11.9552 8.24263 11.9552 9.29536ZM11.2049 8.97059C11.2049 8.00185 11.2049 7.02752 11.2049 6.05878C11.2049 5.6892 10.8521 5.45962 10.5329 5.61641C10.3369 5.7116 10.2641 5.88519 10.2641 6.09238C10.2641 7.1955 10.2641 8.29863 10.2641 9.40176C10.2641 10.2193 10.2697 11.0368 10.2585 11.8544C10.2585 11.972 10.2921 12 10.4041 11.9944C10.6281 11.9888 10.8521 11.9888 11.0761 11.9944C11.1769 12 11.2049 11.9776 11.2049 11.8712C11.1993 10.9025 11.2049 9.93932 11.2049 8.97059Z" fill="#3E3C3D"/>
<path d="M3.16942 9.8273C3.16942 8.91456 3.16942 8.00182 3.16942 7.08908C3.16942 6.63551 3.33741 6.26594 3.72378 6.01395C4.12135 5.75077 4.55253 5.73397 4.9725 5.95796C5.40927 6.18754 5.62205 6.57391 5.62205 7.06668C5.62765 8.02422 5.62205 8.98175 5.62205 9.93929C5.62205 10.8352 5.62205 11.7312 5.62205 12.6271C5.62205 12.7167 5.60526 12.7447 5.51006 12.7447C4.76531 12.7391 4.02616 12.7391 3.28141 12.7447C3.18622 12.7447 3.16382 12.7223 3.16382 12.6271C3.16942 11.6976 3.16942 10.7624 3.16942 9.8273ZM3.93097 9.44092C3.93097 10.2529 3.93097 11.0648 3.93097 11.8768C3.93097 11.9608 3.94217 11.9944 4.03736 11.9888C4.27814 11.9832 4.51893 11.9832 4.75971 11.9888C4.84931 11.9888 4.8661 11.9608 4.8661 11.8768C4.8661 10.2697 4.8661 8.66817 4.8661 7.06108C4.8661 7.00509 4.8661 6.94349 4.84931 6.88749C4.77651 6.66351 4.55813 6.52912 4.32854 6.56272C4.10456 6.59631 3.93657 6.7867 3.93657 7.02188C3.93097 7.83383 3.93097 8.64018 3.93097 9.44092Z" fill="#3E3C3D"/>
<path d="M6.37241 10.8072C6.37241 10.2024 6.35561 9.59764 6.37801 8.99288C6.4004 8.39932 6.89317 7.92336 7.50353 7.87296C8.06349 7.82256 8.61786 8.22014 8.76345 8.7689C8.79704 8.89209 8.81384 9.00968 8.81384 9.13847C8.81384 10.3032 8.81384 11.4679 8.81384 12.6326C8.81384 12.7278 8.79144 12.7502 8.69625 12.7502C7.9571 12.7446 7.21795 12.7446 6.4844 12.7502C6.3892 12.7502 6.36121 12.7278 6.36121 12.6326C6.36681 12.0279 6.36121 11.4231 6.36121 10.8184C6.36681 10.8072 6.36681 10.8072 6.37241 10.8072ZM7.11716 10.4824C7.11716 10.9528 7.11716 11.4287 7.11716 11.8991C7.11716 11.9775 7.13395 11.9943 7.21235 11.9943C7.45873 11.9887 7.71072 11.9887 7.9571 11.9943C8.02429 11.9943 8.05229 11.9831 8.05229 11.9103C8.05229 10.9752 8.05229 10.04 8.04669 9.09928C8.04669 8.8137 7.83951 8.61771 7.56513 8.62891C7.30194 8.63451 7.11156 8.83609 7.11156 9.11608C7.11716 9.56965 7.11716 10.0288 7.11716 10.4824Z" fill="#3E3C3D"/>
<path d="M2.46939 11.384C2.46939 11.7983 2.46939 12.2127 2.46939 12.6271C2.46939 12.7111 2.45819 12.7447 2.3574 12.7447C1.61825 12.7391 0.873498 12.7391 0.134347 12.7447C0.044753 12.7447 0.0279541 12.7223 0.0279541 12.6383C0.0335537 11.8319 0.0279541 11.02 0.0279541 10.2136C0.0279541 9.56407 0.526321 9.03771 1.17588 8.99291C1.80304 8.94811 2.3798 9.42408 2.46379 10.0568C2.47499 10.1296 2.46939 10.208 2.46939 10.2808C2.46939 10.6448 2.46939 11.0144 2.46939 11.384ZM1.71904 11.0648C1.71904 10.7904 1.71904 10.516 1.71904 10.2472C1.71904 9.95605 1.52305 9.74886 1.24867 9.74886C0.974291 9.74886 0.778304 9.95045 0.778304 10.2472C0.778304 10.796 0.778304 11.3504 0.778304 11.8991C0.778304 11.9719 0.789503 11.9999 0.873498 11.9999C1.12548 11.9943 1.37746 11.9943 1.62945 11.9999C1.70784 11.9999 1.72464 11.9775 1.72464 11.9047C1.71904 11.6191 1.71904 11.3448 1.71904 11.0648Z" fill="#3E3C3D"/>
</g>
<defs>
<clipPath id="clip0_295_1208">
<rect width="12" height="12.7448" fill="white"/>
</clipPath>
</defs>
</svg>
