<svg width="1075" height="210" viewBox="0 0 1075 210" fill="none" xmlns="http://www.w3.org/2000/svg">
<path d="M5.02417 179.237V178.625L5.79711 177.874C7.61905 176.122 8.4472 175.176 8.47481 174.091C8.47481 173.368 8.11594 172.673 7.03934 172.673C6.37682 172.673 5.85232 173.007 5.52106 173.285L5.21741 172.589C5.7143 172.172 6.43203 171.866 7.26018 171.866C8.80607 171.866 9.46859 172.923 9.46859 173.98C9.46859 175.315 8.50241 176.4 6.98413 177.874L6.40443 178.403V178.43H9.63422V179.237H5.02417ZM15.4313 175.538C15.4313 177.985 14.5203 179.348 12.9468 179.348C11.539 179.348 10.6004 178.013 10.5728 175.621C10.5728 173.201 11.6218 171.866 13.0573 171.866C14.5755 171.894 15.4313 173.257 15.4313 175.538ZM11.539 175.649C11.539 177.54 12.1187 178.597 13.002 178.597C13.9958 178.597 14.4651 177.429 14.4651 175.593C14.4651 173.813 14.0234 172.645 13.002 172.645C12.1739 172.645 11.539 173.702 11.539 175.649Z" fill="#626A75"/>
<path d="M8.00548 144.469V142.494H4.69287V141.854L7.89506 137.237H8.94406V141.743H9.93784V142.522H8.94406V144.497H8.00548V144.469ZM8.00548 141.743V139.323C8.00548 138.934 8.00548 138.572 8.03309 138.183H8.00548C7.78464 138.6 7.61901 138.906 7.39817 139.24L5.63144 141.688V141.715H8.00548V141.743ZM15.4313 140.77C15.4313 143.217 14.5203 144.58 12.9468 144.58C11.5389 144.58 10.6004 143.245 10.5728 140.853C10.5728 138.433 11.6218 137.098 13.0572 137.098C14.5755 137.126 15.4313 138.489 15.4313 140.77ZM11.5389 140.881C11.5389 142.772 12.1186 143.829 13.002 143.829C13.9958 143.829 14.4651 142.661 14.4651 140.825C14.4651 139.045 14.0234 137.877 13.002 137.877C12.1739 137.877 11.5389 138.934 11.5389 140.881Z" fill="#626A75"/>
<path d="M9.1098 103.164C8.91656 103.164 8.66811 103.164 8.39206 103.22C6.87378 103.47 6.07323 104.611 5.9076 105.779H5.93521C6.26647 105.334 6.87378 104.944 7.67433 104.944C8.94416 104.944 9.82753 105.862 9.82753 107.281C9.82753 108.616 8.94416 109.84 7.45349 109.84C5.9076 109.84 4.91382 108.644 4.91382 106.752C4.91382 105.334 5.41071 104.193 6.12844 103.498C6.73576 102.914 7.5087 102.552 8.41967 102.441C8.69572 102.385 8.94416 102.385 9.1374 102.385V103.164H9.1098ZM8.83374 107.336C8.83374 106.307 8.25404 105.668 7.34307 105.668C6.76336 105.668 6.21126 106.029 5.96281 106.558C5.9076 106.669 5.85239 106.808 5.85239 107.003C5.88 108.199 6.40449 109.061 7.42588 109.061C8.28164 109.061 8.83374 108.366 8.83374 107.336ZM15.4314 106.001C15.4314 108.449 14.5204 109.812 12.9469 109.812C11.539 109.812 10.6005 108.477 10.5729 106.085C10.5729 103.665 11.6219 102.33 13.0573 102.33C14.5756 102.358 15.4314 103.721 15.4314 106.001ZM11.539 106.113C11.539 108.004 12.1188 109.061 13.0021 109.061C13.9959 109.061 14.4652 107.893 14.4652 106.057C14.4652 104.277 14.0235 103.109 13.0021 103.109C12.174 103.109 11.539 104.166 11.539 106.113Z" fill="#626A75"/>
<path d="M4.91382 73.0966C4.91382 72.1787 5.46592 71.539 6.34928 71.1496V71.1218C5.54874 70.7324 5.21747 70.1205 5.21747 69.5085C5.21747 68.3681 6.18365 67.5893 7.42588 67.5893C8.80614 67.5893 9.52387 68.4794 9.52387 69.3695C9.52387 69.9814 9.22022 70.6489 8.33685 71.0662V71.094C9.22022 71.4556 9.77232 72.0953 9.77232 72.9575C9.77232 74.2092 8.69572 75.0715 7.34307 75.0715C5.82479 75.0436 4.91382 74.1536 4.91382 73.0966ZM8.77853 73.041C8.77853 72.1509 8.17122 71.7337 7.20504 71.4556C6.37689 71.7059 5.9076 72.2622 5.9076 72.9575C5.88 73.6807 6.4321 74.3483 7.34307 74.3483C8.22643 74.3483 8.77853 73.792 8.77853 73.041ZM6.12844 69.4529C6.12844 70.1761 6.68055 70.5655 7.5087 70.788C8.11601 70.5655 8.6129 70.1205 8.6129 69.4807C8.6129 68.8966 8.28164 68.3125 7.39828 68.3125C6.57013 68.2847 6.12844 68.8132 6.12844 69.4529ZM15.4314 71.233C15.4314 73.6807 14.5204 75.0436 12.9469 75.0436C11.539 75.0436 10.6005 73.7085 10.5729 71.3165C10.5729 68.8966 11.6219 67.5615 13.0573 67.5615C14.5756 67.5893 15.4314 68.9523 15.4314 71.233ZM11.539 71.3443C11.539 73.2357 12.1188 74.2926 13.0021 74.2926C13.9959 74.2926 14.4652 73.1244 14.4652 71.2887C14.4652 69.5085 14.0235 68.3403 13.0021 68.3403C12.174 68.3403 11.539 69.3973 11.539 71.3443Z" fill="#626A75"/>
<path d="M1.46307 33.8504L0.193236 34.518L0 33.7948L1.57349 32.9603H2.40164V40.1921H1.46307V33.8504ZM9.77221 36.465C9.77221 38.9127 8.86124 40.2756 7.28775 40.2756C5.87989 40.2756 4.94131 38.9405 4.91371 36.5484C4.91371 34.1286 5.9627 32.7935 7.39817 32.7935C8.91645 32.8213 9.77221 34.1842 9.77221 36.465ZM5.87989 36.5762C5.87989 38.4676 6.4596 39.5246 7.34296 39.5246C8.33674 39.5246 8.80603 38.3564 8.80603 36.5206C8.80603 34.7405 8.36435 33.5723 7.34296 33.5723C6.51481 33.5723 5.87989 34.6292 5.87989 36.5762ZM15.4313 36.465C15.4313 38.9127 14.5203 40.2756 12.9468 40.2756C11.5389 40.2756 10.6004 38.9405 10.5728 36.5484C10.5728 34.1286 11.6218 32.7935 13.0572 32.7935C14.5755 32.8213 15.4313 34.1842 15.4313 36.465ZM11.5389 36.5762C11.5389 38.4676 12.1186 39.5246 13.002 39.5246C13.9958 39.5246 14.4651 38.3564 14.4651 36.5206C14.4651 34.7405 14.0234 33.5723 13.002 33.5723C12.1739 33.5723 11.5389 34.6292 11.5389 36.5762Z" fill="#626A75"/>
<path d="M15.4313 204.743C15.4313 207.191 14.5203 208.554 12.9468 208.554C11.5389 208.554 10.6004 207.219 10.5728 204.854C10.5728 202.434 11.6217 201.099 13.0572 201.099C14.5755 201.099 15.4313 202.434 15.4313 204.743ZM11.5389 204.854C11.5389 206.746 12.1186 207.803 13.002 207.803C13.9958 207.803 14.4651 206.634 14.4651 204.799C14.4651 203.019 14.0234 201.85 13.002 201.85C12.1739 201.85 11.5389 202.907 11.5389 204.854Z" fill="#626A75"/>
<path d="M29.7234 209V150.395L124.749 119.698L219.774 55.5116L314.799 59.6977L409.824 83.4186L504.849 69.4651L599.874 40.1628L694.899 34.5814L789.924 77.8372L884.95 63.8837L979.975 34.5814L1075 29V209H29.7234Z" fill="#F48327"/>
<path d="M29.7234 208.944V185.324L124.749 169.253L219.774 93.3513L314.799 115.634L409.824 93.3513L504.849 100.315L599.874 60.6232L694.899 146.273L789.924 93.3513L884.95 117.027L979.975 46L1075 69.7314V209L29.7234 208.944Z" fill="#0082CC"/>
<path d="M29.7234 209L124.749 199.231L219.774 174.11L314.799 139.22L409.824 143.407L504.849 130.846L599.874 139.22L694.899 160.154L789.924 136.429L884.95 125.264L979.975 98.7473L1075 82V209H29.7234Z" fill="#00CC52"/>
<path d="M1071.22 210H31.5227C29.4055 210 27.7419 209.34 27.7419 208.5C27.7419 207.66 29.4055 207 31.5227 207H1071.22C1073.34 207 1075 207.66 1075 208.5C1075 209.34 1073.34 210 1071.22 210Z" fill="#3A4352"/>
<path d="M29.2338 210C28.4608 210 27.8535 209.388 27.8535 208.609V1.39073C27.8535 0.611921 28.4608 0 29.2338 0C30.0067 0 30.614 0.611921 30.614 1.39073V208.609C30.614 209.388 30.0067 210 29.2338 210Z" fill="#3A4352"/>
</svg>
