<svg width="11" height="13" viewBox="0 0 11 13" fill="none" xmlns="http://www.w3.org/2000/svg">
<path d="M5.52329 12.0001C6.65 11.9769 7.78253 11.8606 8.85697 11.4362C9.19383 11.3024 9.51906 11.1397 9.78622 10.8838C9.93142 10.7443 10.0011 10.5757 9.9895 10.3664C9.93142 9.18617 9.50745 8.16873 8.67693 7.32571C8.38073 7.02338 8.47366 6.57571 8.86859 6.45943C9.05444 6.40129 9.22287 6.4478 9.35645 6.58152C10.1637 7.38385 10.6806 8.33733 10.8955 9.45361C10.9536 9.76175 10.9826 10.0699 10.9942 10.3838C11.0175 10.9013 10.8026 11.3083 10.4309 11.6455C9.93142 12.1048 9.3216 12.3606 8.68274 12.5524C7.38179 12.942 6.04599 13.0524 4.69858 12.9652C3.69964 12.9013 2.72392 12.7327 1.78886 12.3664C1.4462 12.2327 1.12097 12.0641 0.81896 11.849C0.209139 11.4187 -0.0638281 10.849 0.0116735 10.0931C0.139445 8.75012 0.644725 7.59315 1.58559 6.62803C1.88179 6.32571 2.34061 6.42454 2.45676 6.81408C2.51484 7.02338 2.44515 7.1978 2.29414 7.34896C1.78886 7.86059 1.43459 8.45943 1.2197 9.14547C1.09193 9.54664 1.03966 9.95361 1.01062 10.3664C0.999002 10.5641 1.0687 10.7211 1.20228 10.8548C1.51009 11.1629 1.89921 11.3373 2.29995 11.4827C3.33374 11.8722 4.414 11.9827 5.52329 12.0001Z" fill="#3E3C3D"/>
<path d="M2.00952 3.4942C2.00952 1.56397 3.57182 0.00582976 5.50002 1.58062e-05C7.44564 -0.00579815 9.01955 1.59304 9.00213 3.55234C8.98471 5.44188 7.4166 7.00002 5.50583 7.00002C3.56602 7.00002 2.00952 5.43606 2.00952 3.4942ZM5.50583 1.00002C4.15841 0.988388 3.02008 2.11629 3.00847 3.47095C2.99685 4.84304 4.11776 5.98839 5.47679 6.00002C6.85324 6.00583 7.98576 4.90118 7.99738 3.52327C8.00899 2.14536 6.88808 1.01164 5.50583 1.00002Z" fill="#3E3C3D"/>
</svg>
