<svg width="30" height="30" viewBox="0 0 30 30" fill="none" xmlns="http://www.w3.org/2000/svg">
<rect width="30" height="30" rx="15" fill="#8A3AB9"/>
<path d="M10.9433 7C13.6307 7 16.3152 7 19.0025 7C19.0142 7.00875 19.0229 7.02625 19.0346 7.02625C19.5948 7.07291 20.1201 7.23331 20.6132 7.49579C21.7453 8.09657 22.4865 9.01816 22.8454 10.2489C22.9154 10.4851 22.9241 10.733 23 10.9663C23 13.6611 23 16.3558 23 19.0535C22.9679 19.0623 22.9708 19.0914 22.9679 19.1148C22.9066 19.6222 22.7695 20.1122 22.5244 20.5613C21.7161 22.0574 20.4585 22.9324 18.7545 22.9703C16.251 23.0257 13.7474 22.9878 11.2439 22.9819C10.6982 22.9819 10.1672 22.8594 9.67699 22.6261C7.94086 21.8037 7.02756 20.4272 7.01005 18.4994C6.98963 16.1575 7.00714 13.8157 7.00422 11.4767C7.00422 10.9138 7.083 10.3685 7.29309 9.84933C7.84748 8.47279 8.83664 7.57162 10.2693 7.15457C10.4911 7.08749 10.7245 7.08458 10.9433 7ZM15.0109 8.43196C15.0109 8.42904 15.0109 8.42904 15.0109 8.42612C13.8495 8.42612 12.6882 8.42612 11.5298 8.42612C11.2906 8.42612 11.0542 8.43779 10.8179 8.48445C9.47566 8.75568 8.42522 9.96599 8.43398 11.465C8.44565 13.8157 8.43981 16.1692 8.43689 18.5198C8.43689 18.966 8.50401 19.4006 8.70242 19.803C9.27724 20.9638 10.2168 21.5558 11.5182 21.5587C13.8437 21.5616 16.1722 21.5587 18.4977 21.5587C18.7312 21.5587 18.9646 21.5471 19.1951 21.5004C20.5373 21.2263 21.5877 20.0189 21.579 18.5198C21.5673 16.1692 21.5732 13.8157 21.5761 11.465C21.5761 10.8701 21.4389 10.313 21.1092 9.81434C20.5461 8.95983 19.7553 8.46404 18.7282 8.44071C17.4881 8.41154 16.248 8.43196 15.0109 8.43196Z" fill="white"/>
<path d="M19.1248 14.9852C19.1277 17.2541 17.2807 19.109 15.0077 19.1119C12.7376 19.1148 10.8818 17.2687 10.8789 14.9968C10.876 12.7279 12.723 10.873 14.996 10.8701C17.2661 10.8672 19.1219 12.7162 19.1248 14.9852ZM17.6951 14.991C17.6951 13.5007 16.4958 12.3021 15.0048 12.3021C13.5137 12.2992 12.3145 13.4949 12.3116 14.9881C12.3058 16.4813 13.5137 17.6887 15.0106 17.6858C16.4987 17.6799 17.6951 16.4813 17.6951 14.991Z" fill="white"/>
<path d="M19.2883 11.7508C18.7164 11.7478 18.2495 11.2783 18.2525 10.7096C18.2554 10.1438 18.731 9.66846 19.2971 9.66846C19.866 9.66846 20.3504 10.1584 20.3417 10.7242C20.3329 11.2929 19.8631 11.7537 19.2883 11.7508Z" fill="white"/>
</svg>
