<svg width="12" height="13" viewBox="0 0 12 13" fill="none" xmlns="http://www.w3.org/2000/svg">
<path d="M2.3522 2.24905C2.82481 2.24905 3.27026 2.24905 3.72114 2.24905C3.96016 2.24905 4.12857 2.40659 4.12857 2.62388C4.134 2.83574 3.97646 3.00414 3.75373 3.00414C3.35718 3.00958 2.96605 3.00414 2.56949 3.00414C2.23268 3.00414 1.89588 3.00414 1.55908 3.00414C1.27116 3.00414 1.12449 2.85747 1.12449 2.56956C1.12449 1.84706 1.12449 1.11913 1.12449 0.396629C1.12449 0.190201 1.2603 0.0326635 1.45043 6.95691e-05C1.61883 -0.0216597 1.79267 0.0869867 1.85785 0.260821C1.87958 0.315144 1.87415 0.364035 1.87415 0.418358C1.87415 0.82035 1.87415 1.22234 1.87415 1.6352C1.92847 1.62977 1.95564 1.58631 1.98823 1.55371C2.87913 0.74973 3.9167 0.239092 5.10095 0.0761221C7.19783 -0.211791 8.97963 0.434655 10.4246 1.96657C11.2558 2.85204 11.7447 3.91677 11.9294 5.12275C12.3966 8.23004 10.3486 11.2232 7.28474 11.8588C5.05749 12.3206 3.13988 11.6959 1.57537 10.0499C0.733364 9.16983 0.244455 8.09966 0.0597555 6.88825C0.0271616 6.60034 0 6.31786 0 6.02995C0 5.79636 0.168402 5.62795 0.385695 5.62795C0.597555 5.63339 0.74966 5.79636 0.755093 6.02451C0.847442 8.26806 1.91218 9.87603 3.9493 10.8267C4.70439 11.1798 5.51924 11.3102 6.35582 11.2341C8.44726 11.0385 9.93572 9.97381 10.8103 8.07793C11.1689 7.30654 11.2829 6.48626 11.2286 5.63339C11.0765 3.48762 9.60978 1.60804 7.54006 0.999617C5.63875 0.440088 3.92757 0.847512 2.44455 2.16213C2.41738 2.18386 2.39565 2.20559 2.3522 2.24905Z" fill="#3E3C3D"/>
<path d="M6.3721 4.88366C6.13308 4.88366 5.89406 4.88366 5.65504 4.88366C5.43231 4.88366 5.26934 5.03577 5.25848 5.2422C5.25304 5.44862 5.40515 5.61159 5.63331 5.62246C5.92122 5.63332 6.20913 5.61159 6.49705 5.63332C7.04571 5.67678 7.4803 6.14939 7.50746 6.73065C7.52919 7.25216 7.11633 7.76823 6.60026 7.85514C6.38297 7.89317 6.38297 7.89317 6.38297 8.11046C6.38297 8.18108 6.38297 8.2517 6.3721 8.31689C6.34494 8.49616 6.18197 8.62653 6.0027 8.63197C5.82887 8.63197 5.6659 8.49616 5.63331 8.32232C5.61158 8.20824 5.62244 8.09417 5.62244 7.98009C5.62244 7.90403 5.60615 7.87687 5.52466 7.87687C5.31823 7.88231 5.1118 7.88231 4.90538 7.87687C4.67179 7.87687 4.49795 7.7139 4.49795 7.49661C4.49795 7.27932 4.67179 7.12178 4.90538 7.12178C5.39428 7.12178 5.88319 7.12178 6.36667 7.12178C6.56223 7.12178 6.70891 6.9914 6.73607 6.80127C6.76323 6.62201 6.66002 6.4536 6.49705 6.39928C6.43186 6.37755 6.36124 6.37755 6.29062 6.37755C6.02443 6.37212 5.76368 6.38842 5.4975 6.36669C4.95427 6.32323 4.52511 5.85605 4.49252 5.27479C4.47079 4.76415 4.88365 4.24265 5.39972 4.1503C5.62244 4.10684 5.62244 4.10684 5.62244 3.87325C5.62244 3.58534 5.70936 3.4441 5.91036 3.38977C6.11678 3.33545 6.32864 3.46583 6.36667 3.67769C6.3884 3.79177 6.38297 3.90585 6.37753 4.01992C6.3721 4.10141 6.39383 4.134 6.48075 4.12857C6.68175 4.12314 6.88817 4.12314 7.08917 4.12857C7.32276 4.12857 7.49659 4.28611 7.50203 4.5034C7.50746 4.72069 7.32819 4.88366 7.08917 4.88366C6.85015 4.88366 6.61112 4.88366 6.3721 4.88366Z" fill="#3E3C3D"/>
</svg>
