<svg width="22" height="22" viewBox="0 0 22 22" fill="none" xmlns="http://www.w3.org/2000/svg">
<rect width="22" height="22" rx="5" fill="#FFA55C"/>
<path d="M6 13.3243C6.05872 13.1462 6.17544 13.0211 6.29289 12.894C7.73973 11.3282 9.18535 9.76081 10.6312 8.19367C10.862 7.94368 11.1274 7.93388 11.3499 8.17491C12.8388 9.78741 14.3267 11.4013 15.8157 13.0141C15.9669 13.1778 16.0381 13.3668 15.9796 13.6045C15.8903 13.9667 15.5066 14.1171 15.2426 13.8928C15.2062 13.8618 15.1726 13.8259 15.1396 13.7904C13.7879 12.3257 12.436 10.8616 11.0868 9.3938C11.0166 9.31766 10.9819 9.31766 10.9119 9.3938C9.55826 10.8666 8.2017 12.336 6.84515 13.8055C6.64451 14.0227 6.41915 14.058 6.21728 13.9113C6.10497 13.8296 6.04918 13.7033 6 13.5701C6 13.4883 6 13.4063 6 13.3243Z" fill="white"/>
</svg>
